<?xml version="1.0" standalone="no"?><!DOCTYPE svg PUBLIC "-//W3C//DTD SVG 1.1//EN" "http://www.w3.org/Graphics/SVG/1.1/DTD/svg11.dtd"><svg t="1619074916354" class="icon" viewBox="0 0 1024 1024" version="1.1" xmlns="http://www.w3.org/2000/svg" p-id="13257" width="48" height="48" xmlns:xlink="http://www.w3.org/1999/xlink"><defs><style type="text/css"></style></defs><path d="M228.992 137.6a42.666667 42.666667 0 0 1 60.032 5.973333L512 416.170667l222.976-272.512a42.666667 42.666667 0 0 1 66.048 54.016l-233.898667 285.866666 93.098667 113.749334H704a149.333333 149.333333 0 0 1 149.333333 149.333333v21.333333a128 128 0 0 1-256 0v-112.768l-85.333333-104.277333-85.333333 104.277333v112.768a128 128 0 0 1-256 0v-21.333333a149.333333 149.333333 0 0 1 149.333333-149.333333h43.776l93.098667-113.792-233.898667-285.866667a42.666667 42.666667 0 0 1 5.973333-60.032h0.042667zM341.333333 682.624h-21.333333a64 64 0 0 0-64 64v21.333333a42.666667 42.666667 0 1 0 85.333333 0v-85.333333z m341.333334 0v85.333333a42.666667 42.666667 0 0 0 85.333333 0v-21.333333a64 64 0 0 0-64-64H682.666667z" p-id="13258"></path></svg>