<svg height="48" viewBox="0 0 1024 1024" width="48" xmlns="http://www.w3.org/2000/svg"><path d="m579.2 171.4h-179.2v-130.4c0-2.2 1.8-4 4-4h171.2c2.2 0 4 1.8 4 4z"/><path d="m489.6 193.8c135.9 0 246.4 110.5 246.4 246.4v186.9l135.8 135.8-46.2-87.5v-235.2c0-185.3-150.7-336-336-336-77.5 0-148.7 26.6-205.6 70.9l63.9 63.9c40.1-28.4 88.9-45.2 141.7-45.2zm-312 627.2 65.6-123.2v-257.6c0-16.3 1.7-32.3 4.7-47.8l-71.9-71.9c-14.3 37.2-22.4 77.5-22.4 119.7v235.2l-74.5 139.8-3 6.9c-6.8 20.4-3.3 43.1 9.2 60.6 12.6 17.5 33 27.9 54.5 27.9h626.2l-89.5-89.6zm-122.862-685.137 63.356-63.356 851.207 851.207-63.356 63.356z"/></svg>