<?xml version="1.0" standalone="no"?><!DOCTYPE svg PUBLIC "-//W3C//DTD SVG 1.1//EN" "http://www.w3.org/Graphics/SVG/1.1/DTD/svg11.dtd"><svg t="1622540073826" class="icon" viewBox="0 0 1024 1024" version="1.1" xmlns="http://www.w3.org/2000/svg" p-id="5276" width="48" height="48" xmlns:xlink="http://www.w3.org/1999/xlink"><defs><style type="text/css"></style></defs><path d="M512 0C230.4 0 0 230.4 0 512s230.4 512 512 512 512-230.4 512-512S793.6 0 512 0z m0 939.52c-235.52 0-427.52-192-427.52-427.52S276.48 84.48 512 84.48 939.52 276.48 939.52 512 747.52 939.52 512 939.52z m179.2-435.2L555.52 640V268.8c0-23.04-17.92-43.52-43.52-43.52-23.04 0-43.52 17.92-43.52 43.52V640L332.8 504.32c-17.92-17.92-43.52-17.92-61.44 0-7.68 7.68-12.8 20.48-12.8 30.72s5.12 23.04 12.8 30.72l207.36 207.36c17.92 17.92 43.52 17.92 61.44 0l207.36-207.36c17.92-17.92 17.92-43.52 0-61.44-12.8-17.92-40.96-17.92-56.32 0z" p-id="5277"></path></svg>