<?xml version="1.0" standalone="no"?><!DOCTYPE svg PUBLIC "-//W3C//DTD SVG 1.1//EN" "http://www.w3.org/Graphics/SVG/1.1/DTD/svg11.dtd"><svg t="1618278675575" class="icon" viewBox="0 0 1024 1024" version="1.1" xmlns="http://www.w3.org/2000/svg" p-id="21790" width="48" height="48" xmlns:xlink="http://www.w3.org/1999/xlink"><defs><style type="text/css"></style></defs><path d="M548.4 721c-5 10-9.2 18-12.7 23.9-3.4 5.9-7 10.5-10.8 13.6 1.9 6.3 4.1 14.7 6.6 25.3 2.5 10.6 4.8 21.6 7 32.8 2.2 11.3 4.2 21.4 6.1 30.5 1.9 9.1 2.8 15.5 2.8 19.2 0 3.1-1.4 7-4.2 11.7-2.8 4.7-6.3 9.1-10.3 13.1-4.1 4.1-8.3 7.7-12.7 10.8-4.4 3.1-8.1 4.7-11.3 4.7-3.1 0-6.7-1.6-10.8-4.7-4.1-3.1-8-7-11.7-11.7-3.8-4.7-7-9.2-9.9-13.6-2.8-4.4-4.2-8.1-4.2-11.3 0-5 0.8-12.4 2.3-22.1 1.6-9.7 3.4-20 5.6-31 2.2-10.9 4.5-21.6 7-31.9 2.5-10.3 4.4-18.3 5.6-23.9-3.8-3.8-7.2-8.9-10.3-15.5-3.1-6.6-6.9-14.2-11.3-23-1.9-3.1-2-6.6-0.5-10.3 1.6-3.8 3.6-7.2 6.1-10.3 2.5-3.7 5.9-7.8 10.3-12.2h43.2c4.4 4.4 8.1 8.4 11.3 12.2 3.1 3.8 5.5 7.7 7 11.7 1.8 4.3 1.7 8.2-0.2 12m298.3 54.7c-1.7-13.3-4-24.2-6.8-32.7-4.5-14.7-12.9-26.6-25.1-35.7-12.2-9.1-26.1-16.4-41.6-22.1-15.6-5.7-31.7-10.6-48.4-14.9-16.7-4.2-31.9-9.2-45.5-14.9-27.2-11.3-44.7-24.5-52.7-39.5-7.9-15-11.3-30.2-10.2-45.5l84.1-13.6c9.1-12.5 17.3-26.6 24.6-42.5 6.2-13.6 12.3-29.7 18.3-48.4 5.9-18.7 9.5-39.9 10.6-63.7 1.1-15.3 0.4-33.8-2.1-55.6-2.6-21.8-7.2-44.5-14-68s-15.7-46.7-26.8-69.7c-11-22.9-24.8-43.6-41.2-62-16.4-18.4-35.7-33.3-57.8-44.6-22.1-11.3-47-17-74.8-17-6.2 0-12.2 0.1-17.8 0.4-5.7 0.3-11.6 0.7-17.8 1.3-21.5 0-43 3.7-64.6 11-37.4 10.8-67 27.3-88.8 49.7-21.8 22.4-38.2 47.6-49.3 75.6-11 28-18 57.5-20.8 88.4-2.8 30.9-4.2 59.9-4.2 87.1 0 32.9 2.8 59.6 8.5 80.3 5.7 20.7 11.9 37 18.7 48.9 7.9 14.2 17 24.6 27.2 31.4l73.1 11c0.6 7.4 0.6 14.3 0 20.8s-2.4 12.7-5.5 18.7c-3.1 5.9-7.6 11.9-13.6 17.8s-14.3 12.3-25.1 19.1c-14.7 9.6-31.9 16.8-51.4 21.7-19.6 4.8-38.4 10.5-56.5 17s-34.1 15.1-48 25.9c-13.9 10.8-22.5 26.6-25.9 47.6-5.1 36.3-6.1 65.8-3 88.8 3.1 22.9 7.5 36.7 13.2 41.2 5.1 4 19.8 8.6 44.2 14 24.4 5.4 52.5 10.6 84.5 15.7s65 9.4 99 12.8c34 3.4 63.2 5.1 87.5 5.1 16.4 0 35.7-0.8 57.8-2.5 22.1-1.7 45.2-4 69.2-6.8 24.1-2.8 48-6.1 71.8-9.8 23.8-3.7 45.5-7.5 65-11.5s35.8-8.2 48.9-12.7c13-4.5 21-8.8 23.8-12.7 4-5.7 6.9-14.4 8.9-26.3s3-24.6 3-38.2c-0.1-13.7-0.9-27.1-2.6-40.4" p-id="21791"></path></svg>