<?xml version="1.0" standalone="no"?><!DOCTYPE svg PUBLIC "-//W3C//DTD SVG 1.1//EN" "http://www.w3.org/Graphics/SVG/1.1/DTD/svg11.dtd"><svg t="1619074798734" class="icon" viewBox="0 0 1024 1024" version="1.1" xmlns="http://www.w3.org/2000/svg" p-id="9702" width="48" height="48" xmlns:xlink="http://www.w3.org/1999/xlink"><defs><style type="text/css"></style></defs><path d="M891.9 885.4H132.2c-37.2 0-67.5-31.2-67.5-69.7V206.1c0-38.4 30.3-69.7 67.5-69.7H455c15.6 0 29.9 8.6 37.2 22.3l106.6 199.6h276.8c37.2 0 83.9 44.8 83.9 83.2v374.2c0 38.5-30.3 69.7-67.6 69.7z m-724.6-66.1h689.6c20.8 0 37.7-16.7 37.7-37.4V470.1c0-24.4-20-44.3-44.6-44.3H585c-16.8 0-32.3-9.3-40.1-24.1l-104.3-185c-6.5-12.2-19.3-19.9-33.3-19.9h-240c-20.8 0-37.7 16.7-37.7 37.4V782c0 20.6 16.9 37.3 37.7 37.3z m0 0" p-id="9703"></path><path d="M855.3 393.9c-23.5 0.4-42.7-19.1-42.7-42.4v-64.9c0-16.4-13.4-31.6-30-31.6H517c-23.5 0-43.2-19.1-42.8-42.4 0.4-22.6 19-26.7 41.9-26.7H817c38.6 0 69.9 45 69.9 83.2v83.2c0 22.7-8.8 41.2-31.6 41.6z m0 0" p-id="9704"></path></svg>
