<?xml version="1.0" standalone="no"?><!DOCTYPE svg PUBLIC "-//W3C//DTD SVG 1.1//EN" "http://www.w3.org/Graphics/SVG/1.1/DTD/svg11.dtd"><svg t="1617680937746" class="icon" viewBox="0 0 1024 1024" version="1.1" xmlns="http://www.w3.org/2000/svg" p-id="10617" width="48" height="48" xmlns:xlink="http://www.w3.org/1999/xlink"><defs><style type="text/css"></style></defs><path d="M347.755879 698.994593h-15.896887c-0.767828-7.166396-2.189732-14.133725-2.189732-21.499188 0-73.569311 38.277655-138.15219 96.09227-175.861082-21.698255-26.020843-35.263218-58.895262-35.263218-95.239128 0-83.181382 68.279829-150.636506 152.51342-150.636507 84.233591 0 152.51342 67.455124 152.513419 150.636507 0 36.343865-13.536526 69.189847-35.23478 95.210689 57.871492 37.680455 96.206023 102.291771 96.206022 175.889521 0 7.365463-1.450342 14.332792-2.21817 21.499188h-14.986868l0.056876 0.227505-39.301425-0.028438-0.028438-0.199067h-25.708024c1.165961-7.024206 2.246608-14.105287 2.246608-21.442312 0-58.554005-38.732664-107.922511-92.594386-126.720081a152.229039 152.229039 0 0 1-40.950834 6.199501 152.51342 152.51342 0 0 1-47.178774-8.104853c-57.132101 17.005971-98.936078 67.824819-98.936078 128.625433 0 7.337024 1.080647 14.418106 2.246608 21.442312h-12.114622v0.028438l-39.272987-0.028438z m189.340732-217.380678c42.827748 0 77.550642-33.642248 77.550642-75.104968 0-41.491158-34.722895-75.133406-77.550642-75.133406-42.827748 0-77.550642 33.642248-77.550642 75.133406 0 41.46272 34.722895 75.104968 77.550642 75.104968z m379.221788 542.285735H169.818816c-51.5298 0-93.305338-40.438949-93.305338-90.347778v-150.551192h93.305338V933.551872h746.499583V90.448133H169.818816V240.999325H76.513478V90.448133c0-49.908829 41.775539-90.347778 93.305338-90.347778h746.499583c51.5298 0 93.305338 40.438949 93.305339 90.347778v843.103739c0 49.908829-41.775539 90.347778-93.305339 90.347778zM232.041334 406.622699c0 24.940196-20.901988 45.15967-46.638451 45.15967H60.986286c-25.793338 0-46.695326-20.219474-46.695326-45.15967 0-24.968634 20.901988-45.188108 46.695326-45.188108h124.416597c25.736462 0 46.63845 20.219474 46.638451 45.188108z m-171.055048 135.47901h124.416597c25.736462 0 46.63845 20.219474 46.638451 45.188109 0 24.940196-20.901988 45.15967-46.638451 45.15967H60.986286c-25.793338 0-46.695326-20.219474-46.695326-45.15967 0-24.968634 20.901988-45.188108 46.695326-45.188109z" p-id="10618"></path></svg>