<?xml version="1.0" standalone="no"?><!DOCTYPE svg PUBLIC "-//W3C//DTD SVG 1.1//EN" "http://www.w3.org/Graphics/SVG/1.1/DTD/svg11.dtd"><svg t="1618278498370" class="icon" viewBox="0 0 1024 1024" version="1.1" xmlns="http://www.w3.org/2000/svg" p-id="7546" width="48" height="48" xmlns:xlink="http://www.w3.org/1999/xlink"><defs><style type="text/css"></style></defs><path d="M883.2 778.24c2.56 9.728 5.12 21.504 7.168 36.352 2.048 14.848 3.072 29.696 3.072 44.544s-1.024 29.184-3.584 42.496c-2.56 13.312-6.144 23.552-10.752 30.208-3.584 4.608-12.288 9.216-26.112 13.824-13.824 4.608-31.744 8.704-52.736 12.288-20.992 3.584-44.544 7.168-70.656 10.752s-51.712 6.144-77.824 8.704-51.2 4.096-75.776 5.12-46.08 1.536-64.512 1.536-39.936-0.512-64-2.048-49.152-3.072-74.752-5.12-51.2-4.608-76.288-7.168-48.128-5.632-69.12-9.216-38.4-6.656-53.248-9.728-23.552-6.144-27.136-9.728c-6.144-4.608-10.752-19.968-14.336-45.568-3.584-25.6-2.048-58.88 4.096-99.84 3.584-23.04 12.8-40.96 28.16-53.248s33.28-22.016 53.248-29.184 41.472-13.312 63.488-18.944 41.472-13.824 57.856-24.576c12.8-8.192 23.04-15.872 30.208-23.552s12.288-14.848 15.36-22.528 4.608-15.36 4.608-23.552-0.512-17.408-1.024-27.648c-1.536-14.848-6.144-26.624-14.848-34.816s-17.92-16.896-28.16-25.6c-5.632-4.096-10.24-10.24-13.824-17.92s-7.168-15.872-10.752-24.064c-3.584-8.704-6.656-18.944-9.216-29.696-1.536-1.536-3.584-3.584-6.144-7.168-2.048-3.584-4.608-8.192-7.168-13.824s-5.632-14.336-9.216-25.088-5.632-20.48-6.656-29.184-1.024-15.872 0.512-22.016c0.512-7.68 2.56-13.824 5.12-19.456 0-24.064 1.536-47.616 4.096-71.68 2.56-19.968 7.168-41.472 13.312-64.512 6.144-23.04 15.872-44.032 29.696-62.464 12.288-16.896 25.6-31.232 39.936-42.496 14.336-11.264 29.184-19.968 44.544-26.112s30.72-10.24 46.592-12.8 30.72-3.584 45.056-3.584c15.872 1.536 28.672 3.072 38.4 5.632s17.92 5.12 24.064 8.704 11.264 7.68 15.872 12.288c4.608 4.608 9.216 9.728 13.824 14.336h19.456c6.144 0 12.288 1.024 17.92 2.56s11.776 5.12 17.408 9.728c5.632 4.608 12.288 11.776 18.944 20.48 15.872 20.48 27.136 43.008 34.816 67.072s12.8 47.104 16.384 69.12c3.584 25.088 5.632 50.176 6.144 74.752 1.536 3.584 2.56 7.68 3.072 12.288s1.024 10.752 1.536 17.408 0 15.36-1.536 25.6c-1.536 13.824-3.584 24.576-6.144 32.256s-5.632 13.824-9.216 17.92c-3.584 4.608-7.168 8.192-11.264 10.24-2.56 10.752-5.632 20.992-9.216 29.696-3.584 8.192-7.168 16.384-10.752 24.064-3.584 7.68-8.192 13.824-13.824 17.92-11.776 9.728-20.992 17.408-28.672 24.064s-12.8 17.408-15.36 33.28c-2.048 9.728-2.56 18.944-2.048 28.672s3.072 19.456 7.68 29.184 11.776 19.456 21.504 28.16 23.552 16.896 41.472 23.552c15.872 6.144 32.768 11.776 51.712 16.896 18.944 5.12 36.864 10.752 54.272 17.408 17.408 6.656 32.768 14.848 46.592 25.088 13.824 10.24 23.04 23.552 28.672 39.936z m-328.704-33.792c2.048-4.096 2.048-8.192 0.512-12.8-1.536-4.608-4.096-8.704-7.68-12.8s-7.68-8.704-12.288-13.312h-47.104c-4.608 4.608-8.704 9.216-11.264 13.312-2.56 3.584-5.12 7.168-6.656 11.264s-1.536 7.68 0.512 11.264c4.608 9.728 8.704 17.92 12.288 25.088s7.168 12.8 11.264 16.896c-1.536 6.144-3.584 14.848-6.144 26.112-2.56 11.264-5.12 23.04-7.68 34.816s-4.608 23.04-6.144 33.792-2.56 18.432-2.56 24.064c0 3.584 1.536 7.68 4.608 12.288 3.072 4.608 6.656 9.728 10.752 14.848s8.192 9.216 12.8 12.8 8.192 5.12 11.776 5.12 7.68-1.536 12.288-5.12 9.216-7.168 13.824-11.776 8.192-9.216 11.264-14.336c3.072-5.12 4.608-9.216 4.608-12.8 0-4.096-1.024-11.264-3.072-20.992s-4.096-20.992-6.656-33.28-5.12-24.064-7.68-35.84-5.12-20.992-7.168-27.648c4.096-3.584 8.192-8.192 11.776-14.848 3.584-6.656 8.192-15.36 13.824-26.112z" p-id="7547"></path></svg>