<?xml version="1.0" standalone="no"?><!DOCTYPE svg PUBLIC "-//W3C//DTD SVG 1.1//EN" "http://www.w3.org/Graphics/SVG/1.1/DTD/svg11.dtd"><svg t="1619075020658" class="icon" viewBox="0 0 1024 1024" version="1.1" xmlns="http://www.w3.org/2000/svg" p-id="18396" width="48" height="48" xmlns:xlink="http://www.w3.org/1999/xlink"><defs><style type="text/css"></style></defs><path d="M416.847 1022.188a40.802 40.802 0 0 1-40.645-40.723V681.826a40.96 40.96 0 0 1 50.097-39.62l417.162 99.8 87.197-622.513-782.493 453.396 140.76 36.233a40.724 40.724 0 0 1-20.322 78.848L31.586 626.924a40.724 40.724 0 0 1-10.24-74.594L962.01 7.247a40.566 40.566 0 0 1 60.652 40.881l-105 749.568a40.645 40.645 0 0 1-49.703 33.95L457.413 733.42v154.152l83.101-77.982a40.566 40.566 0 1 1 55.533 59.392l-151.552 142.179a39.936 39.936 0 0 1-27.648 11.027z" p-id="18397"></path><path d="M416.847 722.55a40.881 40.881 0 0 1-30.326-67.899l215.906-241.664a40.645 40.645 0 1 1 60.652 54.272L447.173 708.923a40.566 40.566 0 0 1-30.326 13.627z" p-id="18398"></path></svg>
