<?xml version="1.0" standalone="no"?><!DOCTYPE svg PUBLIC "-//W3C//DTD SVG 1.1//EN" "http://www.w3.org/Graphics/SVG/1.1/DTD/svg11.dtd"><svg t="1617681001764" class="icon" viewBox="0 0 1024 1024" version="1.1" xmlns="http://www.w3.org/2000/svg" p-id="12185" width="48" height="48" xmlns:xlink="http://www.w3.org/1999/xlink"><defs><style type="text/css"></style></defs><path d="M626.346667 92.216889l6.542222 7.68 28.444444 36.977778h96.711111a141.937778 141.937778 0 0 1 141.937778 133.461333l0.284445 9.329778v97.28l34.133333 29.582222a140.288 140.288 0 0 1 7.964444 216.974222l-7.964444 6.599111-34.133333 29.582223v97.28a142.222222 142.222222 0 0 1-132.721778 143.075555l-9.500445 0.284445h-96.711111l-28.444444 36.408888a141.312 141.312 0 0 1-215.324445 7.68l-6.542222-7.68-28.444444-36.408888h-96.711111c-70.997333 0-131.527111-59.221333-136.248889-133.916445l-0.284445-9.443555v-92.16l-45.511111-27.306667c-76.8-54.840889-79.530667-172.657778-8.248889-231.992889l8.248889-6.371556 45.511111-27.306666v-92.16c0-75.377778 57.685333-137.671111 127.715556-142.506667l8.817778-0.284444h96.711111l28.444444-36.977778a141.312 141.312 0 0 1 215.324445-7.68zM488.96 154.851556l-3.982222 4.778666-39.822222 54.613334c-9.728 9.728-19.512889 16.156444-32.824889 17.806222l-6.997334 0.398222h-119.466666c-21.048889 0-41.984 17.92-45.112889 41.301333l-0.398222 5.916445v117.76c0 13.937778-4.380444 27.022222-16.896 36.124444l-5.859556 3.697778-56.888889 41.528889a47.331556 47.331556 0 0 0-5.290667 75.036444l5.290667 4.039111 56.888889 42.097778a39.253333 39.253333 0 0 1 22.471111 33.336889l0.284445 5.916445v117.76c0 24.177778 19.342222 44.430222 40.277333 47.388444l5.233778 0.398222h119.466666c14.620444 0 25.031111 4.551111 34.929778 13.084445l4.892445 4.551111 39.822222 55.182222c15.872 22.186667 51.313778 23.779556 69.973333 4.778667l49.493333-59.960889c4.892444-9.728 18.090667-15.758222 28.956445-17.237334l5.176889-0.398222h119.466666c26.282667 0 42.837333-18.432 45.226667-41.813333l0.284445-5.973333v-120.035556c0-12.686222 4.152889-24.519111 12.515555-33.393778l4.551111-4.152889 56.888889-43.804444c21.048889-17.351111 22.641778-49.664 4.835556-69.745778l-4.835556-4.778667-56.888889-43.804444a45.852444 45.852444 0 0 1-16.725333-30.947556l-0.341333-6.030222v-120.604444c0-24.177778-14.563556-43.975111-39.139556-46.876445l-6.371556-0.341333h-119.466666a44.942222 44.942222 0 0 1-31.061334-13.653333l-3.072-4.551111-45.511111-54.613334c-15.872-22.186667-51.313778-23.779556-69.973333-4.778666z m24.462222 222.094222c79.644444 0 142.222222 63.146667 142.222222 141.653333 0 77.937778-62.577778 141.653333-142.222222 141.653333-73.955556 0-136.533333-63.715556-136.533333-141.653333 0-78.506667 62.577778-141.653333 136.533333-141.653333z m0 94.435555c-22.755556 0-45.511111 21.048889-45.511111 47.217778 0 26.168889 22.755556 47.217778 45.511111 47.217778 28.444444 0 51.2-21.048889 51.2-47.217778 0-26.168889-22.755556-47.217778-51.2-47.217778z" fill="#000000" p-id="12186"></path></svg>