<?xml version="1.0" standalone="no"?><!DOCTYPE svg PUBLIC "-//W3C//DTD SVG 1.1//EN" "http://www.w3.org/Graphics/SVG/1.1/DTD/svg11.dtd"><svg t="1623902202141" class="icon" viewBox="0 0 1024 1024" version="1.1" xmlns="http://www.w3.org/2000/svg" p-id="7214" width="64" height="64" xmlns:xlink="http://www.w3.org/1999/xlink"><defs><style type="text/css"></style></defs><path d="M647.717 346.992L522.4 465 398.79 348.6a21.04 21.04 0 0 0-15.73-6.908c-11.363 0-20.573 8.682-20.573 19.39a18.722 18.722 0 0 0 5.578 13.248l-0.047 0.044L508.2 506.392l0.043-0.041a21.414 21.414 0 0 0 28.14 0.127l0.061 0.058 139.738-131.605a18.84 18.84 0 0 0 6.765-14.342c0-10.708-9.213-19.39-20.574-19.39a21.132 21.132 0 0 0-14.656 5.793z m-250.1 191.963L522.937 657.4l123.605-116.83a21.014 21.014 0 0 1 15.73-6.931c11.363 0 20.574 8.712 20.574 19.463a18.824 18.824 0 0 1-5.579 13.3l0.047 0.044-140.179 132.503-0.043-0.041a21.354 21.354 0 0 1-28.139 0.127l-0.061 0.058L369.15 567a18.945 18.945 0 0 1-6.765-14.4c0-10.749 9.213-19.461 20.574-19.461a21.089 21.089 0 0 1 14.656 5.816z" p-id="7215"></path></svg>