<?xml version="1.0" standalone="no"?><!DOCTYPE svg PUBLIC "-//W3C//DTD SVG 1.1//EN" "http://www.w3.org/Graphics/SVG/1.1/DTD/svg11.dtd"><svg t="1623729199015" class="icon" viewBox="0 0 1024 1024" version="1.1" xmlns="http://www.w3.org/2000/svg" p-id="2478" width="48" height="48" xmlns:xlink="http://www.w3.org/1999/xlink"><defs><style type="text/css"></style></defs><path d="M436.148148 750.174815a75.851852 75.851852 0 0 1-75.851852-75.851852V349.866667a75.851852 75.851852 0 0 1 119.656297-62.008889l229.451851 162.133333a75.851852 75.851852 0 0 1 0 124.017778l-229.451851 162.133333a75.851852 75.851852 0 0 1-43.804445 14.032593z m0-400.497778v324.835556L664.651852 512z" p-id="2479"></path><path d="M512 1024a512 512 0 1 1 512-512 512 512 0 0 1-512 512z m0-948.148148a436.148148 436.148148 0 1 0 436.148148 436.148148A436.148148 436.148148 0 0 0 512 75.851852z" p-id="2480"></path></svg>