<?xml version="1.0" standalone="no"?><!DOCTYPE svg PUBLIC "-//W3C//DTD SVG 1.1//EN" "http://www.w3.org/Graphics/SVG/1.1/DTD/svg11.dtd"><svg t="1617761818627" class="icon" viewBox="0 0 1024 1024" version="1.1" xmlns="http://www.w3.org/2000/svg" p-id="3792" width="48" height="48" xmlns:xlink="http://www.w3.org/1999/xlink"><defs><style type="text/css"></style></defs><path d="M865.834667 362.538667a382.72 382.72 0 0 0-82.346667-122.026667A382.762667 382.762667 0 0 0 512 128a382.890667 382.890667 0 0 0-271.530667 112.469333A382.72 382.72 0 0 0 128 512a382.592 382.592 0 0 0 112.469333 271.530667A382.677333 382.677333 0 0 0 512 896a382.634667 382.634667 0 0 0 271.530667-112.469333A382.72 382.72 0 0 0 896 512a381.610667 381.610667 0 0 0-30.165333-149.461333z m-49.237334 278.144a329.6 329.6 0 0 1-70.826666 105.045333 329.685333 329.685333 0 0 1-233.813334 96.853333 329.386667 329.386667 0 0 1-233.728-96.853333A329.557333 329.557333 0 0 1 181.504 512a329.472 329.472 0 0 1 96.853333-233.728 329.557333 329.557333 0 0 1 233.685334-96.853333 329.429333 329.429333 0 0 1 233.728 96.853333A329.472 329.472 0 0 1 842.581333 512a328.533333 328.533333 0 0 1-26.026666 128.682667z m-272.042666-69.674667c-2.218667 24.106667-17.493333 35.370667-32.64 35.370667-11.221333 0 0 0 0 0-14.378667-2.688-25.514667-8.832-30.421334-33.194667l-19.754666-227.84c0-22.869333 27.818667-43.136 51.456-43.136 23.637333 0 49.066667 21.205333 49.066666 44.032l-17.706666 224.768zM512 636.16a42.794667 42.794667 0 1 0 0 85.589333 42.794667 42.794667 0 0 0 0-85.589333z" p-id="3793"></path></svg>